TITLE ""
FILE "LR_black_phrase_E_B02.mp3" MP3
  TRACK 01 AUDIO
    TITLE "LR_black_phrase_E_B02_001"
    INDEX 01 00:00:00
  TRACK 02 AUDIO
    TITLE "LR_black_phrase_E_B02_002"
    INDEX 01 00:00:18
  TRACK 03 AUDIO
    TITLE "LR_black_phrase_E_B02_003"
    INDEX 01 00:01:33
  TRACK 04 AUDIO
    TITLE "LR_black_phrase_E_B02_004"
    INDEX 01 00:01:63
  TRACK 05 AUDIO
    TITLE "LR_black_phrase_E_B02_005"
    INDEX 01 00:04:20
  TRACK 06 AUDIO
    TITLE "LR_black_phrase_E_B02_006"
    INDEX 01 00:04:67
  TRACK 07 AUDIO
    TITLE "LR_black_phrase_E_B02_007"
    INDEX 01 00:07:18
  TRACK 08 AUDIO
    TITLE "LR_black_phrase_E_B02_008"
    INDEX 01 00:08:22
  TRACK 09 AUDIO
    TITLE "LR_black_phrase_E_B02_009"
    INDEX 01 00:09:41
  TRACK 10 AUDIO
    TITLE "LR_black_phrase_E_B02_010"
    INDEX 01 00:09:70
  TRACK 11 AUDIO
    TITLE "LR_black_phrase_E_B02_011"
    INDEX 01 00:11:51
  TRACK 12 AUDIO
    TITLE "LR_black_phrase_E_B02_012"
    INDEX 01 00:12:29
  TRACK 13 AUDIO
    TITLE "LR_black_phrase_E_B02_013"
    INDEX 01 00:14:12
  TRACK 14 AUDIO
    TITLE "LR_black_phrase_E_B02_014"
    INDEX 01 00:15:16
  TRACK 15 AUDIO
    TITLE "LR_black_phrase_E_B02_015"
    INDEX 01 00:16:35
  TRACK 16 AUDIO
    TITLE "LR_black_phrase_E_B02_016"
    INDEX 01 00:16:62
  TRACK 17 AUDIO
    TITLE "LR_black_phrase_E_B02_017"
    INDEX 01 00:18:53
  TRACK 18 AUDIO
    TITLE "LR_black_phrase_E_B02_018"
    INDEX 01 00:19:29
  TRACK 19 AUDIO
    TITLE "LR_black_phrase_E_B02_019"
    INDEX 01 00:21:18
  TRACK 20 AUDIO
    TITLE "LR_black_phrase_E_B02_020"
    INDEX 01 00:22:22
  TRACK 21 AUDIO
    TITLE "LR_black_phrase_E_B02_021"
    INDEX 01 00:23:41
  TRACK 22 AUDIO
    TITLE "LR_black_phrase_E_B02_022"
    INDEX 01 00:23:72
  TRACK 23 AUDIO
    TITLE "LR_black_phrase_E_B02_023"
    INDEX 01 00:26:51
  TRACK 24 AUDIO
    TITLE "LR_black_phrase_E_B02_024"
    INDEX 01 00:27:29
  TRACK 25 AUDIO
    TITLE "LR_black_phrase_E_B02_025"
    INDEX 01 00:30:09
  TRACK 26 AUDIO
    TITLE "LR_black_phrase_E_B02_026"
    INDEX 01 00:31:13
  TRACK 27 AUDIO
    TITLE "LR_black_phrase_E_B02_027"
    INDEX 01 00:32:20
  TRACK 28 AUDIO
    TITLE "LR_black_phrase_E_B02_028"
    INDEX 01 00:32:42
  TRACK 29 AUDIO
    TITLE "LR_black_phrase_E_B02_029"
    INDEX 01 00:34:29
  TRACK 30 AUDIO
    TITLE "LR_black_phrase_E_B02_030"
    INDEX 01 00:35:07
  TRACK 31 AUDIO
    TITLE "LR_black_phrase_E_B02_031"
    INDEX 01 00:36:69
  TRACK 32 AUDIO
    TITLE "LR_black_phrase_E_B02_032"
    INDEX 01 00:37:72
  TRACK 33 AUDIO
    TITLE "LR_black_phrase_E_B02_033"
    INDEX 01 00:39:12
  TRACK 34 AUDIO
    TITLE "LR_black_phrase_E_B02_034"
    INDEX 01 00:39:32
  TRACK 35 AUDIO
    TITLE "LR_black_phrase_E_B02_035"
    INDEX 01 00:41:70
  TRACK 36 AUDIO
    TITLE "LR_black_phrase_E_B02_036"
    INDEX 01 00:42:34
  TRACK 37 AUDIO
    TITLE "LR_black_phrase_E_B02_037"
    INDEX 01 00:44:72
  TRACK 38 AUDIO
    TITLE "LR_black_phrase_E_B02_038"
    INDEX 01 00:45:70
  TRACK 39 AUDIO
    TITLE "LR_black_phrase_E_B02_039"
    INDEX 01 00:47:29
  TRACK 40 AUDIO
    TITLE "LR_black_phrase_E_B02_040"
    INDEX 01 00:47:59
  TRACK 41 AUDIO
    TITLE "LR_black_phrase_E_B02_041"
    INDEX 01 00:49:70
  TRACK 42 AUDIO
    TITLE "LR_black_phrase_E_B02_042"
    INDEX 01 00:50:49
  TRACK 43 AUDIO
    TITLE "LR_black_phrase_E_B02_043"
    INDEX 01 00:52:60
  TRACK 44 AUDIO
    TITLE "LR_black_phrase_E_B02_044"
    INDEX 01 00:53:65
  TRACK 45 AUDIO
    TITLE "LR_black_phrase_E_B02_045"
    INDEX 01 00:55:07
  TRACK 46 AUDIO
    TITLE "LR_black_phrase_E_B02_046"
    INDEX 01 00:55:37
  TRACK 47 AUDIO
    TITLE "LR_black_phrase_E_B02_047"
    INDEX 01 00:58:19
  TRACK 48 AUDIO
    TITLE "LR_black_phrase_E_B02_048"
    INDEX 01 00:58:74
  TRACK 49 AUDIO
    TITLE "LR_black_phrase_E_B02_049"
    INDEX 01 01:01:57
  TRACK 50 AUDIO
    TITLE "LR_black_phrase_E_B02_050"
    INDEX 01 01:02:62
  TRACK 51 AUDIO
    TITLE "LR_black_phrase_E_B02_051"
    INDEX 01 01:04:04
  TRACK 52 AUDIO
    TITLE "LR_black_phrase_E_B02_052"
    INDEX 01 01:04:32
  TRACK 53 AUDIO
    TITLE "LR_black_phrase_E_B02_053"
    INDEX 01 01:06:33
  TRACK 54 AUDIO
    TITLE "LR_black_phrase_E_B02_054"
    INDEX 01 01:07:13
  TRACK 55 AUDIO
    TITLE "LR_black_phrase_E_B02_055"
    INDEX 01 01:09:13
  TRACK 56 AUDIO
    TITLE "LR_black_phrase_E_B02_056"
    INDEX 01 01:10:17
  TRACK 57 AUDIO
    TITLE "LR_black_phrase_E_B02_057"
    INDEX 01 01:11:32
  TRACK 58 AUDIO
    TITLE "LR_black_phrase_E_B02_058"
    INDEX 01 01:11:63
  TRACK 59 AUDIO
    TITLE "LR_black_phrase_E_B02_059"
    INDEX 01 01:15:22
  TRACK 60 AUDIO
    TITLE "LR_black_phrase_E_B02_060"
    INDEX 01 01:15:73
  TRACK 61 AUDIO
    TITLE "LR_black_phrase_E_B02_061"
    INDEX 01 01:19:31
  TRACK 62 AUDIO
    TITLE "LR_black_phrase_E_B02_062"
    INDEX 01 01:20:33
  TRACK 63 AUDIO
    TITLE "LR_black_phrase_E_B02_063"
    INDEX 01 01:21:42
  TRACK 64 AUDIO
    TITLE "LR_black_phrase_E_B02_064"
    INDEX 01 01:21:73
  TRACK 65 AUDIO
    TITLE "LR_black_phrase_E_B02_065"
    INDEX 01 01:24:05
  TRACK 66 AUDIO
    TITLE "LR_black_phrase_E_B02_066"
    INDEX 01 01:24:62
  TRACK 67 AUDIO
    TITLE "LR_black_phrase_E_B02_067"
    INDEX 01 01:26:69
  TRACK 68 AUDIO
    TITLE "LR_black_phrase_E_B02_068"
    INDEX 01 01:27:72
  TRACK 69 AUDIO
    TITLE "LR_black_phrase_E_B02_069"
    INDEX 01 01:29:26
  TRACK 70 AUDIO
    TITLE "LR_black_phrase_E_B02_070"
    INDEX 01 01:29:55
  TRACK 71 AUDIO
    TITLE "LR_black_phrase_E_B02_071"
    INDEX 01 01:32:32
  TRACK 72 AUDIO
    TITLE "LR_black_phrase_E_B02_072"
    INDEX 01 01:33:12
  TRACK 73 AUDIO
    TITLE "LR_black_phrase_E_B02_073"
    INDEX 01 01:35:66
  TRACK 74 AUDIO
    TITLE "LR_black_phrase_E_B02_074"
    INDEX 01 01:36:69
  TRACK 75 AUDIO
    TITLE "LR_black_phrase_E_B02_075"
    INDEX 01 01:38:15
  TRACK 76 AUDIO
    TITLE "LR_black_phrase_E_B02_076"
    INDEX 01 01:38:46
  TRACK 77 AUDIO
    TITLE "LR_black_phrase_E_B02_077"
    INDEX 01 01:40:67
  TRACK 78 AUDIO
    TITLE "LR_black_phrase_E_B02_078"
    INDEX 01 01:41:47
  TRACK 79 AUDIO
    TITLE "LR_black_phrase_E_B02_079"
    INDEX 01 01:43:67
  TRACK 80 AUDIO
    TITLE "LR_black_phrase_E_B02_080"
    INDEX 01 01:44:72
  TRACK 81 AUDIO
    TITLE "LR_black_phrase_E_B02_081"
    INDEX 01 01:46:20
  TRACK 82 AUDIO
    TITLE "LR_black_phrase_E_B02_082"
    INDEX 01 01:46:50
  TRACK 83 AUDIO
    TITLE "LR_black_phrase_E_B02_083"
    INDEX 01 01:48:60
  TRACK 84 AUDIO
    TITLE "LR_black_phrase_E_B02_084"
    INDEX 01 01:49:36
  TRACK 85 AUDIO
    TITLE "LR_black_phrase_E_B02_085"
    INDEX 01 01:51:45
  TRACK 86 AUDIO
    TITLE "LR_black_phrase_E_B02_086"
    INDEX 01 01:52:50
  TRACK 87 AUDIO
    TITLE "LR_black_phrase_E_B02_087"
    INDEX 01 01:54:06
  TRACK 88 AUDIO
    TITLE "LR_black_phrase_E_B02_088"
    INDEX 01 01:54:36
  TRACK 89 AUDIO
    TITLE "LR_black_phrase_E_B02_089"
    INDEX 01 01:56:37
  TRACK 90 AUDIO
    TITLE "LR_black_phrase_E_B02_090"
    INDEX 01 01:57:14
  TRACK 91 AUDIO
    TITLE "LR_black_phrase_E_B02_091"
    INDEX 01 01:59:15
  TRACK 92 AUDIO
    TITLE "LR_black_phrase_E_B02_092"
    INDEX 01 02:00:21
  TRACK 93 AUDIO
    TITLE "LR_black_phrase_E_B02_093"
    INDEX 01 02:01:26
  TRACK 94 AUDIO
    TITLE "LR_black_phrase_E_B02_094"
    INDEX 01 02:01:55
  TRACK 95 AUDIO
    TITLE "LR_black_phrase_E_B02_095"
    INDEX 01 02:03:35
  TRACK 96 AUDIO
    TITLE "LR_black_phrase_E_B02_096"
    INDEX 01 02:04:14
  TRACK 97 AUDIO
    TITLE "LR_black_phrase_E_B02_097"
    INDEX 01 02:05:69
  TRACK 98 AUDIO
    TITLE "LR_black_phrase_E_B02_098"
    INDEX 01 02:06:74
  TRACK 99 AUDIO
    TITLE "LR_black_phrase_E_B02_099"
    INDEX 01 02:08:18
  TRACK 100 AUDIO
    TITLE "LR_black_phrase_E_B02_100"
    INDEX 01 02:08:48
  TRACK 101 AUDIO
    TITLE "LR_black_phrase_E_B02_101"
    INDEX 01 02:11:09
  TRACK 102 AUDIO
    TITLE "LR_black_phrase_E_B02_102"
    INDEX 01 02:11:60
  TRACK 103 AUDIO
    TITLE "LR_black_phrase_E_B02_103"
    INDEX 01 02:14:21
  TRACK 104 AUDIO
    TITLE "LR_black_phrase_E_B02_104"
    INDEX 01 02:15:22
  TRACK 105 AUDIO
    TITLE "LR_black_phrase_E_B02_105"
    INDEX 01 02:16:45
  TRACK 106 AUDIO
    TITLE "LR_black_phrase_E_B02_106"
    INDEX 01 02:16:74
  TRACK 107 AUDIO
    TITLE "LR_black_phrase_E_B02_107"
    INDEX 01 02:19:41
  TRACK 108 AUDIO
    TITLE "LR_black_phrase_E_B02_108"
    INDEX 01 02:20:19
  TRACK 109 AUDIO
    TITLE "LR_black_phrase_E_B02_109"
    INDEX 01 02:22:61
  TRACK 110 AUDIO
    TITLE "LR_black_phrase_E_B02_110"
    INDEX 01 02:23:65
  TRACK 111 AUDIO
    TITLE "LR_black_phrase_E_B02_111"
    INDEX 01 02:25:15
  TRACK 112 AUDIO
    TITLE "LR_black_phrase_E_B02_112"
    INDEX 01 02:25:44
  TRACK 113 AUDIO
    TITLE "LR_black_phrase_E_B02_113"
    INDEX 01 02:27:29
  TRACK 114 AUDIO
    TITLE "LR_black_phrase_E_B02_114"
    INDEX 01 02:28:07
  TRACK 115 AUDIO
    TITLE "LR_black_phrase_E_B02_115"
    INDEX 01 02:29:65
  TRACK 116 AUDIO
    TITLE "LR_black_phrase_E_B02_116"
    INDEX 01 02:30:69
  TRACK 117 AUDIO
    TITLE "LR_black_phrase_E_B02_117"
    INDEX 01 02:32:30
  TRACK 118 AUDIO
    TITLE "LR_black_phrase_E_B02_118"
    INDEX 01 02:32:60
  TRACK 119 AUDIO
    TITLE "LR_black_phrase_E_B02_119"
    INDEX 01 02:34:70
  TRACK 120 AUDIO
    TITLE "LR_black_phrase_E_B02_120"
    INDEX 01 02:35:50
  TRACK 121 AUDIO
    TITLE "LR_black_phrase_E_B02_121"
    INDEX 01 02:37:61
  TRACK 122 AUDIO
    TITLE "LR_black_phrase_E_B02_122"
    INDEX 01 02:38:66
  TRACK 123 AUDIO
    TITLE "LR_black_phrase_E_B02_123"
    INDEX 01 02:39:66
  TRACK 124 AUDIO
    TITLE "LR_black_phrase_E_B02_124"
    INDEX 01 02:40:20
  TRACK 125 AUDIO
    TITLE "LR_black_phrase_E_B02_125"
    INDEX 01 02:42:37
  TRACK 126 AUDIO
    TITLE "LR_black_phrase_E_B02_126"
    INDEX 01 02:43:15
  TRACK 127 AUDIO
    TITLE "LR_black_phrase_E_B02_127"
    INDEX 01 02:45:31
  TRACK 128 AUDIO
    TITLE "LR_black_phrase_E_B02_128"
    INDEX 01 02:46:34
  TRACK 129 AUDIO
    TITLE "LR_black_phrase_E_B02_129"
    INDEX 01 02:47:63
  TRACK 130 AUDIO
    TITLE "LR_black_phrase_E_B02_130"
    INDEX 01 02:48:10
  TRACK 131 AUDIO
    TITLE "LR_black_phrase_E_B02_131"
    INDEX 01 02:50:11
  TRACK 132 AUDIO
    TITLE "LR_black_phrase_E_B02_132"
    INDEX 01 02:50:60
  TRACK 133 AUDIO
    TITLE "LR_black_phrase_E_B02_133"
    INDEX 01 02:52:61
  TRACK 134 AUDIO
    TITLE "LR_black_phrase_E_B02_134"
    INDEX 01 02:53:64
  TRACK 135 AUDIO
    TITLE "LR_black_phrase_E_B02_135"
    INDEX 01 02:55:06
  TRACK 136 AUDIO
    TITLE "LR_black_phrase_E_B02_136"
    INDEX 01 02:55:37
  TRACK 137 AUDIO
    TITLE "LR_black_phrase_E_B02_137"
    INDEX 01 02:57:62
  TRACK 138 AUDIO
    TITLE "LR_black_phrase_E_B02_138"
    INDEX 01 02:58:40
  TRACK 139 AUDIO
    TITLE "LR_black_phrase_E_B02_139"
    INDEX 01 03:00:64
  TRACK 140 AUDIO
    TITLE "LR_black_phrase_E_B02_140"
    INDEX 01 03:01:67
  TRACK 141 AUDIO
    TITLE "LR_black_phrase_E_B02_141"
    INDEX 01 03:03:15
  TRACK 142 AUDIO
    TITLE "LR_black_phrase_E_B02_142"
    INDEX 01 03:03:45
  TRACK 143 AUDIO
    TITLE "LR_black_phrase_E_B02_143"
    INDEX 01 03:05:57
  TRACK 144 AUDIO
    TITLE "LR_black_phrase_E_B02_144"
    INDEX 01 03:06:37
  TRACK 145 AUDIO
    TITLE "LR_black_phrase_E_B02_145"
    INDEX 01 03:08:50
  TRACK 146 AUDIO
    TITLE "LR_black_phrase_E_B02_146"
    INDEX 01 03:09:53
  TRACK 147 AUDIO
    TITLE "LR_black_phrase_E_B02_147"
    INDEX 01 03:10:68
  TRACK 148 AUDIO
    TITLE "LR_black_phrase_E_B02_148"
    INDEX 01 03:11:21
  TRACK 149 AUDIO
    TITLE "LR_black_phrase_E_B02_149"
    INDEX 01 03:13:22
  TRACK 150 AUDIO
    TITLE "LR_black_phrase_E_B02_150"
    INDEX 01 03:14:01
  TRACK 151 AUDIO
    TITLE "LR_black_phrase_E_B02_151"
    INDEX 01 03:16:06
  TRACK 152 AUDIO
    TITLE "LR_black_phrase_E_B02_152"
    INDEX 01 03:17:10
  TRACK 153 AUDIO
    TITLE "LR_black_phrase_E_B02_153"
    INDEX 01 03:18:17
  TRACK 154 AUDIO
    TITLE "LR_black_phrase_E_B02_154"
    INDEX 01 03:18:48
  TRACK 155 AUDIO
    TITLE "LR_black_phrase_E_B02_155"
    INDEX 01 03:20:39
  TRACK 156 AUDIO
    TITLE "LR_black_phrase_E_B02_156"
    INDEX 01 03:21:17
  TRACK 157 AUDIO
    TITLE "LR_black_phrase_E_B02_157"
    INDEX 01 03:23:10
  TRACK 158 AUDIO
    TITLE "LR_black_phrase_E_B02_158"
    INDEX 01 03:24:12
  TRACK 159 AUDIO
    TITLE "LR_black_phrase_E_B02_159"
    INDEX 01 03:25:34
  TRACK 160 AUDIO
    TITLE "LR_black_phrase_E_B02_160"
    INDEX 01 03:25:66
  TRACK 161 AUDIO
    TITLE "LR_black_phrase_E_B02_161"
    INDEX 01 03:28:07
  TRACK 162 AUDIO
    TITLE "LR_black_phrase_E_B02_162"
    INDEX 01 03:28:62
  TRACK 163 AUDIO
    TITLE "LR_black_phrase_E_B02_163"
    INDEX 01 03:31:06
  TRACK 164 AUDIO
    TITLE "LR_black_phrase_E_B02_164"
    INDEX 01 03:32:09
  TRACK 165 AUDIO
    TITLE "LR_black_phrase_E_B02_165"
    INDEX 01 03:33:32
  TRACK 166 AUDIO
    TITLE "LR_black_phrase_E_B02_166"
    INDEX 01 03:33:57
  TRACK 167 AUDIO
    TITLE "LR_black_phrase_E_B02_167"
    INDEX 01 03:36:70
  TRACK 168 AUDIO
    TITLE "LR_black_phrase_E_B02_168"
    INDEX 01 03:37:40
  TRACK 169 AUDIO
    TITLE "LR_black_phrase_E_B02_169"
    INDEX 01 03:40:52
  TRACK 170 AUDIO
    TITLE "LR_black_phrase_E_B02_170"
    INDEX 01 03:41:47
  TRACK 171 AUDIO
    TITLE "LR_black_phrase_E_B02_171"
    INDEX 01 03:42:58
  TRACK 172 AUDIO
    TITLE "LR_black_phrase_E_B02_172"
    INDEX 01 03:43:07
  TRACK 173 AUDIO
    TITLE "LR_black_phrase_E_B02_173"
    INDEX 01 03:45:63
  TRACK 174 AUDIO
    TITLE "LR_black_phrase_E_B02_174"
    INDEX 01 03:46:43
  TRACK 175 AUDIO
    TITLE "LR_black_phrase_E_B02_175"
    INDEX 01 03:49:19
  TRACK 176 AUDIO
    TITLE "LR_black_phrase_E_B02_176"
    INDEX 01 03:50:19
  TRACK 177 AUDIO
    TITLE "LR_black_phrase_E_B02_177"
    INDEX 01 03:51:28
  TRACK 178 AUDIO
    TITLE "LR_black_phrase_E_B02_178"
    INDEX 01 03:51:53
  TRACK 179 AUDIO
    TITLE "LR_black_phrase_E_B02_179"
    INDEX 01 03:53:60
  TRACK 180 AUDIO
    TITLE "LR_black_phrase_E_B02_180"
    INDEX 01 03:54:46
  TRACK 181 AUDIO
    TITLE "LR_black_phrase_E_B02_181"
    INDEX 01 03:56:62
